<svg version="1.1" id="Layer_1" xmlns:x="ns_extend;" xmlns:i="ns_ai;" xmlns:graph="ns_graphs;" xmlns="http://www.w3.org/2000/svg" xmlns:xlink="http://www.w3.org/1999/xlink" x="0px" y="0px" viewBox="0 0 122.5 55" style="enable-background:new 0 0 122.5 55;" xml:space="preserve">
 <style type="text/css">
  .st0{fill:#231F20;}
 </style>
 <metadata>
  <sfw xmlns="ns_sfw;">
   <slices>
   </slices>
   <sliceSourceBounds bottomLeftOrigin="true" height="55" width="122.5" x="103.9" y="-211.6">
   </sliceSourceBounds>
  </sfw>
 </metadata>
 <g>
  <path class="st0" d="M80.8,38c-7.4,0-12.3-6.8-12.3-13.6s4.9-13.6,12.3-13.6c7.4,0,12.3,6.8,12.3,13.6S88.1,38,80.8,38 M83.2,12.6
		c-0.9-2-3.9-2-4.7,0c-2.4,5.7-2.4,17.9,0,23.6c0.9,2,3.9,2,4.7,0C85.6,30.4,85.6,18.3,83.2,12.6">
  </path>
  <path class="st0" d="M95.8,12.6c3.1-0.5,6.2-0.9,9.3-1.4c0.7-0.1,1.1,0.2,1.1,0.9v13.9v3c0,0.7,0,1.1-0.2,1.6
		c-0.2,0.5-0.5,1-0.9,1.5c-0.4,0.5-0.9,1-1.3,1.5c-0.3,0.5-0.5,1.1-0.4,1.6c0.1,0.5,0.6,1,1.2,1.4c0.6,0.4,1.4,0.5,2.3,0.6
		c0.9,0,1.8,0,3.3-0.4c0.1,0,0.1,0,0.2,0.1c0,0.1,0,0.1-0.1,0.2c-3.5,1.2-6.3,0.9-7.9,0.4c-0.5-0.2-0.9-0.4-1.3-0.6
		c-3-1.8-3-4.9-3-7.1v-5.7V16C98,14.6,97.4,12.8,95.8,12.6">
  </path>
  <path class="st0" d="M63.5,11.5c-1.9,1.3-5.3-0.2-6.9-0.6c-2.5-0.5-4.7-0.3-7,0.6c-5.8,2.2-5.9,7.1-1.9,11.3
		c1.5,1.6,9.3,7.4,10.4,9.6c1.3,2.4-0.3,4.9-2.9,5.2c-1.4,0.2-2.6,0-3.8-0.9c-1.2-1-0.5-1.8,0.4-2.6c2.5-2.2,1.6-6.3-1.6-7.2
		c-3.2-0.9-6.1,2.1-5.1,5.3c0.6,2,2.4,3.6,4.5,4.6c2.5,1.2,5.3,1.4,8.1,0.9c3.1-0.6,6-2.3,7.1-4.6c0.9-1.9,0.5-4.3-0.9-6.4
		c-2-3-5.9-5.3-8.7-7.8c-1.8-1.6-3.1-3.2-2.9-5c0.1-1.2,0.9-2.4,2.2-2.8c1.8-0.6,4.6,0.6,6.4,2.7c1.5,1.8,2.3,4.3,2.6,6.2V11.5">
  </path>
  <path class="st0" d="M119.2,11.2c0.7-0.1,1.1,0.2,1.1,0.9v21.1c0,1.3,0.6,3.2,2.2,3.4c-3.1,0.4-6.2,0.9-9.3,1.4
		c-0.7,0.1-1.1-0.2-1.1-0.9V16c0-1.3-0.6-3.2-2.2-3.3C113,12.2,116.1,11.7,119.2,11.2">
  </path>
  <path class="st0" d="M32,34.3V15.9c0-1.3-0.6-3.2-2.2-3.3c3.1-0.5,6.2-0.9,9.3-1.4c0.7-0.1,1.1,0.2,1.1,0.9v22.2
		c0,1.3,0.6,3.2,2.2,3.4H29.8C31.4,37.5,32,35.6,32,34.3">
  </path>
  <path class="st0" d="M10.7,14.3c0.7-2.3,2.4-4.5,4.8-2.9c1.7,1.2,2.2,4.4,2.4,6c0.4,3.4,0.4,9.9-0.7,13.3c-0.7,2.3-2.4,4.5-4.8,2.9
		c-1.7-1.2-2.2-4.4-2.4-6C9.6,24.2,9.7,17.8,10.7,14.3 M22.5,31.1c4.8-4.5,5-12,0.4-16.7c-4.6-4.6-12-5-17-0.8
		c-5.1,4.3-5.6,11.7-1.2,16.7c-6.2,2.4-6.3,11.8,0.2,13.6c3.4,1,5.7-0.5,8.4-2c2.7-1.4,4.9-3.1,8.4-2.3c3.1,0.7,5,3.6,4.9,6.6
		c-0.1,3-2.1,5.8-4.6,7.2c-1.3,0.8-2.7,1.2-4.2,1.2c-0.9,0-3.6-0.1-4-1.4c-0.4-1.3,2.3-2.5,2.8-3.1c1.2-1.4,1.3-2.6,0.6-4.2
		c-1.3-3-5.5-3.4-7.3-0.7c-1.8,2.8,0.1,6.1,2.3,7.8c5.2,4,12.4,1.3,14.4-4.8c2-6.3-2.3-12.2-9-12.2c-3,0-5.8,1.3-8.8,1.1
		c-3.4-0.2-5.9-3.4-3.3-6.1C10.3,35.5,17.8,35.6,22.5,31.1">
  </path>
  <path class="st0" d="M16,4.6c0-2.3,1.9-4.2,4.2-4.2c2.3,0,4.1,1.9,4.1,4.2c0,1.9-1.2,3.1-2.8,3.9c-1.2,0.6-1.8,1.1-1.8,2
		c0,0.5,0.3,1,0.7,1.5C18.3,10.4,16,7.7,16,4.6">
  </path>
  <path class="st0" d="M32.6,1.8c1.3-1.9,3.9-2.4,5.8-1c1.9,1.3,2.4,3.9,1,5.8c-1.3,1.9-3.9,2.4-5.8,1C31.8,6.3,31.3,3.7,32.6,1.8">
  </path>
 </g>
</svg>